<svg enable-background="new 0 0 512.001 512.001" height="40" width="40" viewBox="0 0 512.001 512.001"
     xmlns="http://www.w3.org/2000/svg" fill="#f5cb5c">
    <g>
        <g>
            <g>
                <path d="m467.966 372.207-18.273-75.689-18.272-75.689c-.157-.652-.377-1.276-.651-1.866.658-.837 1.365-1.641 2.121-2.41l17.428-17.739c3.821-3.891 3.821-10.126 0-14.017l-17.428-17.738c-7.674-7.811-10.256-19.091-6.738-29.438l7.995-23.514c1.757-5.166-.953-10.788-6.089-12.631l-23.418-8.406c-10.355-3.718-17.621-12.779-18.962-23.648l-3.036-24.606c-.666-5.397-5.511-9.271-10.933-8.725l-24.8 2.512c-10.942 1.108-21.436-3.924-27.379-13.133l-13.478-20.89c-2.944-4.565-8.996-5.942-13.628-3.105l-21.191 12.989c-9.395 5.76-21.069 5.76-30.466 0l-21.191-12.989c-4.633-2.838-10.684-1.46-13.629 3.104l-13.479 20.89c-5.942 9.209-16.434 14.242-27.378 13.133l-24.801-2.512c-5.408-.545-10.267 3.327-10.933 8.725l-3.035 24.605c-1.341 10.869-8.607 19.93-18.963 23.647l-23.418 8.406c-5.136 1.844-7.846 7.465-6.089 12.631l7.995 23.514c3.519 10.346.937 21.626-6.738 29.437l-17.428 17.739c-3.821 3.891-3.821 10.126 0 14.017l17.429 17.739c.755.769 1.462 1.573 2.12 2.41-.274.59-.494 1.214-.651 1.866l-18.272 75.689-18.273 75.689c-.72 2.98-.032 6.125 1.863 8.533 1.896 2.408 4.792 3.814 7.857 3.814h166.514v55.532h-80.402c-19.408 0-35.198 15.79-35.198 35.198v26.717c0 5.523 4.478 10 10 10h96.126c5.522 0 10-4.477 10-10s-4.478-10-10-10h-86.126v-16.717c0-8.38 6.818-15.198 15.198-15.198h232.268c8.38 0 15.198 6.818 15.198 15.198v16.717h-86.126c-5.522 0-10 4.477-10 10s4.478 10 10 10h96.126c5.523 0 10-4.477 10-10v-26.717c0-19.408-15.79-35.198-35.198-35.198h-80.402v-55.532h166.514c3.065 0 5.961-1.406 7.857-3.814 1.895-2.405 2.583-5.55 1.863-8.53zm-201.966-7.653v-55.689h78.019l10.04 55.689zm-108.058 0 10.04-55.689h78.018v55.689zm-59.768-131.379h63.13l-10.04 55.689h-66.534zm51.11-41.371c0-58.844 47.873-106.717 106.717-106.717s106.717 47.873 106.717 106.717c0 7.211-.718 14.371-2.14 21.371h-209.155c-1.422-7-2.139-14.159-2.139-21.371zm96.716 41.371v55.689h-74.413l10.04-55.689zm20 0h64.374l10.04 55.689h-74.414zm94.737 55.689-10.04-55.689h63.129l13.444 55.689zm-267.359-107.791c13-13.233 17.371-32.35 11.406-49.892l-4.83-14.205 14.164-5.084c17.501-6.283 29.783-21.618 32.055-40.023l1.837-14.895 15.066 1.526c18.463 1.864 36.162-6.633 46.198-22.189l8.181-12.679 12.859 7.882c15.844 9.712 35.528 9.712 51.37 0l12.859-7.882 8.182 12.679c10.036 15.555 27.73 24.06 46.198 22.189l15.066-1.526 1.838 14.895c2.27 18.404 14.552 33.739 32.054 40.023l14.164 5.084-4.83 14.205c-5.964 17.542-1.593 36.659 11.406 49.892l10.543 10.73-10.542 10.731c-3.146 3.203-5.802 6.764-7.936 10.64h-29.767c1.195-7.033 1.798-14.182 1.798-21.371 0-69.872-56.845-126.717-126.717-126.717s-126.717 56.845-126.717 126.717c0 7.189.603 14.338 1.798 21.371h-29.767c-2.135-3.876-4.79-7.437-7.936-10.64l-10.543-10.731zm-13.476 127.791h67.756l-10.04 55.689h-71.162zm191.83 131.222h-31.463v-55.532h31.463zm102.651-75.532-10.04-55.689h67.756l13.445 55.689z"/>
                <path d="m265.42 498.18c-1.61-3.927-5.717-6.459-9.949-6.152-4.154.302-7.748 3.231-8.896 7.229-1.148 3.999.382 8.453 3.783 10.868 3.373 2.395 7.923 2.464 11.371.185 3.926-2.593 5.499-7.79 3.691-12.13z"/>
            </g>
        </g>
    </g>
</svg>
